<svg width="5.874908" height="10.000000" viewBox="0 0 5.87491 10" fill="#3B434E" xmlns="http://www.w3.org/2000/svg" xmlns:xlink="http://www.w3.org/1999/xlink">
	<path id="Vector" d="M5.71539 4.6098L1.26529 0.159729C1.16235 0.0567627 1.02496 0 0.878448 0C0.731934 0 0.594543 0.0567627 0.491608 0.159729L0.16391 0.487366C-0.0493469 0.700867 -0.0493469 1.04785 0.16391 1.26105L3.90079 4.99792L0.15976 8.73895C0.0568237 8.84198 0 8.97925 0 9.12567C0 9.27228 0.0568237 9.40961 0.15976 9.5127L0.487488 9.84027C0.590485 9.94324 0.727814 10 0.874298 10C1.02081 10 1.1582 9.94324 1.26114 9.84027L5.71539 5.38611C5.81857 5.28278 5.87524 5.14484 5.87491 4.99817C5.87524 4.85095 5.81857 4.71307 5.71539 4.6098Z" fill-opacity="1.000000" fill-rule="nonzero"/>
</svg>
